<?xml version="1.0" encoding="utf-8"?>
<!-- Svg Vector Icons : http://www.onlinewebfonts.com/icon -->
<!DOCTYPE svg PUBLIC "-//W3C//DTD SVG 1.1//EN" "http://www.w3.org/Graphics/SVG/1.1/DTD/svg11.dtd">
<svg version="1.1" xmlns="http://www.w3.org/2000/svg" xmlns:xlink="http://www.w3.org/1999/xlink" x="0px" y="0px" viewBox="0 0 1000 1000" enable-background="new 0 0 1000 1000" xml:space="preserve">
<metadata> Svg Vector Icons : http://www.onlinewebfonts.com/icon </metadata>
<g><path d="M988.2,954.1c-25.1-183.3-134.1-336.9-291.4-411l-11.8-5.6l9.9-8.5C761.7,471.8,800,388.8,800,301.3c0-165.4-134.6-300-300-300c-165.4,0-300,134.6-300,300c0,87.5,38.3,170.5,105.1,227.7l9.9,8.5l-11.8,5.6c-157.4,74-266.3,227.6-291.4,411L10,966.9v4.7c0,15,12.2,27.1,27.1,27.1c15,0,27.1-12.1,27.1-27.1l-0.3-3.2l1.8-12.3c26.4-178.4,146-328.4,304.5-382l3.2-1.1l3,1.4c39.2,17.8,80.8,26.9,123.5,26.9c42.7,0,84.3-9.1,123.5-26.9l3-1.4l3.2,1.1c158.6,53.6,278.1,203.5,304.5,382l1.8,12.3l-0.3,3.2c0,14.9,12.2,27.1,27.1,27.1c15,0,27.1-12.1,27.1-27.1v-4.7L988.2,954.1z M619.1,516.8c-21,11.6-43.5,20.1-67,25.2c-17.4,3.7-34.9,5.6-52.1,5.6c-17.2,0-34.7-1.9-52.1-5.6c-23.5-5.1-46-13.6-67-25.2c-78.5-43.5-127.3-126.1-127.3-215.5C253.6,165.5,364.2,55,500,55c135.8,0,246.4,110.5,246.4,246.3C746.4,390.7,697.6,473.3,619.1,516.8z"/></g>
</svg>