<?xml version="1.0" encoding="iso-8859-1"?>
<!-- Generator: Adobe Illustrator 16.0.0, SVG Export Plug-In . SVG Version: 6.00 Build 0)  -->
<!DOCTYPE svg PUBLIC "-//W3C//DTD SVG 1.1//EN" "http://www.w3.org/Graphics/SVG/1.1/DTD/svg11.dtd">
<svg version="1.1" id="Capa_1" xmlns="http://www.w3.org/2000/svg" xmlns:xlink="http://www.w3.org/1999/xlink" x="0px" y="0px"
	 width="485.211px" height="485.21px" viewBox="0 0 485.211 485.21" style="enable-background:new 0 0 485.211 485.21;"
	 xml:space="preserve">
<g>
	<path d="M333.586,272.929c0,50.228-40.748,90.976-90.979,90.976c-50.244,0-90.978-40.748-90.978-90.976
		c0-50.225,40.734-90.975,90.978-90.975C292.838,181.954,333.586,222.705,333.586,272.929z M485.211,151.627v242.608
		c0,33.491-27.158,60.649-60.649,60.649H60.651C27.158,454.885,0,427.727,0,394.236V151.627c0-33.493,27.158-60.651,60.651-60.651
		h90.978V60.65c0-16.762,13.579-30.324,30.327-30.324h121.3c16.765,0,30.331,13.562,30.331,30.324v30.327h90.976
		C458.053,90.977,485.211,118.134,485.211,151.627z M363.908,272.929c0-66.87-54.432-121.302-121.302-121.302
		c-66.884,0-121.302,54.432-121.302,121.302c0,66.875,54.418,121.307,121.302,121.307
		C309.477,394.236,363.908,339.804,363.908,272.929z M454.889,121.303h-90.98v60.651h90.98V121.303z"/>
</g>
<g>
</g>
<g>
</g>
<g>
</g>
<g>
</g>
<g>
</g>
<g>
</g>
<g>
</g>
<g>
</g>
<g>
</g>
<g>
</g>
<g>
</g>
<g>
</g>
<g>
</g>
<g>
</g>
<g>
</g>
</svg>
